<mxfile host="65bd71144e">
    <diagram id="1DmJG_v_HB7CN_tW5fvp" name="Page-1">
        <mxGraphModel dx="557" dy="389" grid="1" gridSize="10" guides="1" tooltips="1" connect="1" arrows="1" fold="1" page="1" pageScale="1" pageWidth="827" pageHeight="1169" background="#ffffff" math="0" shadow="0">
            <root>
                <mxCell id="0"/>
                <mxCell id="1" parent="0"/>
                <mxCell id="22" value="singleton" style="edgeStyle=none;html=1;fontSize=10;fillColor=#f5f5f5;strokeColor=#666666;" parent="1" source="20" target="21" edge="1">
                    <mxGeometry relative="1" as="geometry">
                        <mxPoint as="offset"/>
                    </mxGeometry>
                </mxCell>
                <mxCell id="20" value="Object" style="html=1;fontSize=10;fillColor=#dae8fc;strokeColor=#6c8ebf;" parent="1" vertex="1">
                    <mxGeometry x="450" y="120" width="110" height="50" as="geometry"/>
                </mxCell>
                <mxCell id="24" value="" style="edgeStyle=none;html=1;fontSize=10;fillColor=#f5f5f5;strokeColor=#666666;" parent="1" source="21" target="23" edge="1">
                    <mxGeometry relative="1" as="geometry"/>
                </mxCell>
                <mxCell id="21" value="&lt;span style=&quot;font-weight: normal&quot;&gt;#&lt;span&gt;Object&lt;/span&gt;&lt;/span&gt;" style="html=1;fontSize=10;fontStyle=1;fillColor=#f5f5f5;fontColor=#333333;strokeColor=#666666;" parent="1" vertex="1">
                    <mxGeometry x="640" y="120" width="110" height="50" as="geometry"/>
                </mxCell>
                <mxCell id="23" value="Class" style="html=1;fontSize=10;fillColor=#f5f5f5;fontColor=#333333;strokeColor=#666666;" parent="1" vertex="1">
                    <mxGeometry x="640" y="40" width="110" height="50" as="geometry"/>
                </mxCell>
                <mxCell id="29" value="klass" style="edgeStyle=none;html=1;fontSize=10;" parent="1" edge="1">
                    <mxGeometry relative="1" as="geometry">
                        <mxPoint x="560" y="245" as="sourcePoint"/>
                    </mxGeometry>
                </mxCell>
                <mxCell id="33" value="singleton" style="edgeStyle=none;html=1;fontSize=10;fillColor=#f5f5f5;strokeColor=#666666;" parent="1" source="30" target="31" edge="1">
                    <mxGeometry relative="1" as="geometry"/>
                </mxCell>
                <mxCell id="47" value="super" style="edgeStyle=none;html=1;fillColor=#dae8fc;strokeColor=#6c8ebf;" parent="1" source="30" target="20" edge="1">
                    <mxGeometry relative="1" as="geometry"/>
                </mxCell>
                <mxCell id="30" value="Car" style="html=1;fontSize=10;fillColor=#dae8fc;strokeColor=#6c8ebf;" parent="1" vertex="1">
                    <mxGeometry x="450" y="210" width="110" height="50" as="geometry"/>
                </mxCell>
                <mxCell id="48" value="super" style="edgeStyle=none;html=1;fillColor=#f5f5f5;strokeColor=#666666;" parent="1" source="31" target="21" edge="1">
                    <mxGeometry relative="1" as="geometry"/>
                </mxCell>
                <mxCell id="31" value="&lt;span style=&quot;font-weight: normal&quot;&gt;#Car&lt;/span&gt;" style="html=1;fontSize=10;fontStyle=1;fillColor=#f5f5f5;fontColor=#333333;strokeColor=#666666;" parent="1" vertex="1">
                    <mxGeometry x="640" y="210" width="110" height="50" as="geometry"/>
                </mxCell>
                <mxCell id="40" value="singleton" style="edgeStyle=none;html=1;fontSize=10;fillColor=#f5f5f5;strokeColor=#666666;opacity=50;textOpacity=50;" parent="1" source="37" target="38" edge="1">
                    <mxGeometry relative="1" as="geometry"/>
                </mxCell>
                <mxCell id="37" value="car" style="html=1;fontSize=10;fillColor=#dae8fc;strokeColor=#6c8ebf;opacity=50;textOpacity=50;" parent="1" vertex="1">
                    <mxGeometry x="170" y="325" width="110" height="50" as="geometry"/>
                </mxCell>
                <mxCell id="55" value="&lt;font color=&quot;#1e1e1e&quot;&gt;super&lt;/font&gt;" style="edgeStyle=none;html=1;fontSize=12;fontColor=#569CD6;fillColor=#dae8fc;strokeColor=#6c8ebf;entryX=0.5;entryY=1;entryDx=0;entryDy=0;" parent="1" source="38" target="30" edge="1">
                    <mxGeometry relative="1" as="geometry">
                        <mxPoint x="505" y="300" as="targetPoint"/>
                    </mxGeometry>
                </mxCell>
                <mxCell id="38" value="#car" style="html=1;fontSize=10;fillColor=#dae8fc;strokeColor=#6c8ebf;opacity=50;textOpacity=50;" parent="1" vertex="1">
                    <mxGeometry x="450" y="325" width="110" height="50" as="geometry"/>
                </mxCell>
                <mxCell id="41" value="&lt;div style=&quot;font-family: &amp;#34;menlo&amp;#34; , &amp;#34;monaco&amp;#34; , &amp;#34;courier new&amp;#34; , monospace ; font-weight: bold ; font-size: 14px ; line-height: 21px&quot;&gt;&lt;div style=&quot;color: rgb(212 , 212 , 212)&quot;&gt;&lt;span style=&quot;color: #c586c0&quot;&gt;class&lt;/span&gt; &lt;span style=&quot;color: #4ec9b0&quot;&gt;Car&lt;/span&gt;&lt;/div&gt;&lt;div style=&quot;color: rgb(212 , 212 , 212)&quot;&gt;&lt;span style=&quot;color: #c586c0&quot;&gt;&amp;nbsp; def&lt;/span&gt; &lt;span style=&quot;color: #dcdcaa&quot;&gt;initialize&lt;/span&gt;(&lt;span style=&quot;color: #9cdcfe&quot;&gt;kms&lt;/span&gt;)&lt;/div&gt;&lt;div style=&quot;color: rgb(212 , 212 , 212)&quot;&gt;&lt;span style=&quot;color: #9cdcfe&quot;&gt;&amp;nbsp; &amp;nbsp; @kms&lt;/span&gt; = &lt;span style=&quot;color: #9cdcfe&quot;&gt;kms&lt;/span&gt;&lt;/div&gt;&lt;div style=&quot;color: rgb(212 , 212 , 212)&quot;&gt;&lt;span style=&quot;color: #c586c0&quot;&gt;&amp;nbsp; end&lt;/span&gt;&lt;/div&gt;&lt;div&gt;&lt;span style=&quot;color: rgb(197 , 134 , 192)&quot;&gt;&amp;nbsp; def&lt;/span&gt;&lt;font color=&quot;#d4d4d4&quot;&gt;&amp;nbsp;&lt;/font&gt;&lt;font color=&quot;#dcdcaa&quot;&gt;self&lt;/font&gt;&lt;font color=&quot;#d4d4d4&quot;&gt;.&lt;/font&gt;&lt;span style=&quot;color: rgb(220 , 220 , 170)&quot;&gt;drive&lt;/span&gt;&lt;/div&gt;&lt;div style=&quot;color: rgb(212 , 212 , 212)&quot;&gt;&lt;span style=&quot;color: #dcdcaa&quot;&gt;&amp;nbsp; &amp;nbsp; puts&lt;/span&gt; &lt;span style=&quot;color: #ce9178&quot;&gt;&quot;let's go!&quot;&lt;/span&gt;&lt;/div&gt;&lt;div style=&quot;color: rgb(212 , 212 , 212)&quot;&gt;&lt;span style=&quot;color: #c586c0&quot;&gt;&amp;nbsp; end&lt;/span&gt;&lt;/div&gt;&lt;div style=&quot;color: rgb(212 , 212 , 212)&quot;&gt;&lt;span style=&quot;color: #c586c0&quot;&gt;end&lt;/span&gt;&lt;/div&gt;&lt;div style=&quot;color: rgb(212 , 212 , 212)&quot;&gt;  &lt;/div&gt;&lt;div style=&quot;color: rgb(212 , 212 , 212)&quot;&gt;&lt;span style=&quot;color: #9cdcfe&quot;&gt;&lt;br&gt;&lt;/span&gt;&lt;/div&gt;&lt;div style=&quot;color: rgb(212 , 212 , 212)&quot;&gt;&lt;span style=&quot;color: #4ec9b0&quot;&gt;Car&lt;/span&gt;.&lt;span style=&quot;color: rgb(220 , 220 , 170)&quot;&gt;drive&lt;/span&gt;&lt;/div&gt;&lt;/div&gt;" style="text;html=1;align=left;verticalAlign=middle;resizable=0;points=[];autosize=1;strokeColor=none;fillColor=#1E1E1E;spacing=2;labelBackgroundColor=#1e1e1e;" parent="1" vertex="1">
                    <mxGeometry x="40" y="50" width="200" height="220" as="geometry"/>
                </mxCell>
                <mxCell id="46" value="&lt;font color=&quot;#9cdcfe&quot;&gt;@kms&lt;/font&gt;" style="html=1;fontSize=10;fillColor=#1E1E1E;fontStyle=1;opacity=50;textOpacity=50;" parent="1" vertex="1">
                    <mxGeometry x="170" y="375" width="110" height="40" as="geometry"/>
                </mxCell>
                <mxCell id="50" value="&lt;font color=&quot;#569cd6&quot;&gt;:drive&lt;/font&gt;" style="html=1;fontSize=10;fillColor=#1E1E1E;fontStyle=1;opacity=50;textOpacity=50;" parent="1" vertex="1">
                    <mxGeometry x="450" y="375" width="110" height="40" as="geometry"/>
                </mxCell>
                <mxCell id="51" value="&lt;div style=&quot;line-height: 21px&quot;&gt;&lt;div style=&quot;font-family: &amp;#34;menlo&amp;#34; , &amp;#34;monaco&amp;#34; , &amp;#34;courier new&amp;#34; , monospace&quot;&gt;&lt;font style=&quot;font-size: 12px&quot; color=&quot;#5ba5e3&quot;&gt;&lt;u&gt;Car&lt;/u&gt;&lt;/font&gt;&lt;span style=&quot;font-size: 12px ; color: rgb(212 , 212 , 212)&quot;&gt;.&lt;/span&gt;&lt;font color=&quot;#ffffff&quot; style=&quot;font-size: 12px&quot;&gt;&lt;span style=&quot;font-weight: normal&quot;&gt;singleton_class.instance_methods&lt;/span&gt;&lt;/font&gt;&lt;font color=&quot;#dcdcaa&quot; style=&quot;font-size: 12px&quot;&gt;&amp;nbsp;&lt;/font&gt;&lt;font color=&quot;#9cdcfe&quot; style=&quot;font-size: 12px&quot;&gt;false&lt;/font&gt;&lt;br&gt;&lt;/div&gt;&lt;div&gt;&lt;span style=&quot;font-weight: normal&quot;&gt;&lt;span style=&quot;font-family: &amp;#34;menlo&amp;#34; , &amp;#34;monaco&amp;#34; , &amp;#34;courier new&amp;#34; , monospace ; font-size: 12px&quot;&gt;&lt;font color=&quot;#ffffff&quot;&gt;=&amp;gt;&amp;nbsp;&lt;/font&gt;&lt;/span&gt;&lt;span style=&quot;font-size: 12px&quot;&gt;&lt;font face=&quot;menlo, monaco, courier new, monospace&quot; color=&quot;#ffffff&quot;&gt;[&lt;/font&gt;&lt;font color=&quot;#dcdcaa&quot; face=&quot;menlo, monaco, courier new, monospace&quot;&gt;:drive&lt;/font&gt;&lt;font face=&quot;menlo, monaco, courier new, monospace&quot; color=&quot;#ffffff&quot;&gt;]&lt;/font&gt;&lt;/span&gt;&lt;/span&gt;&lt;/div&gt;&lt;/div&gt;" style="html=1;fontSize=10;fillColor=#1E1E1E;fontStyle=1;labelBackgroundColor=none;align=left;spacing=8;" parent="1" vertex="1">
                    <mxGeometry x="640" y="370" width="320" height="80" as="geometry"/>
                </mxCell>
                <mxCell id="53" value="&lt;span style=&quot;font-family: menlo, monaco, &amp;quot;courier new&amp;quot;, monospace; font-size: 11px; font-weight: 700; text-align: left; background-color: rgb(30, 30, 30); color: rgb(78, 201, 176);&quot;&gt;Car&lt;/span&gt;&lt;span style=&quot;color: rgb(212, 212, 212); font-family: menlo, monaco, &amp;quot;courier new&amp;quot;, monospace; font-size: 11px; font-weight: 700; text-align: left; background-color: rgb(30, 30, 30);&quot;&gt;.&lt;/span&gt;&lt;span style=&quot;font-family: menlo, monaco, &amp;quot;courier new&amp;quot;, monospace; font-size: 11px; font-weight: 700; text-align: left; background-color: rgb(30, 30, 30); color: rgb(220, 220, 170);&quot;&gt;drive&lt;/span&gt;" style="shape=singleArrow;whiteSpace=wrap;html=1;arrowWidth=0.4;arrowSize=0.4;labelBackgroundColor=none;fontSize=11;fontColor=#569CD6;fillColor=#1E1E1E;" parent="1" vertex="1">
                    <mxGeometry x="550" y="272" width="100" height="40" as="geometry"/>
                </mxCell>
                <mxCell id="56" value="&lt;div style=&quot;background-color: rgb(30 , 30 , 30) ; font-family: &amp;#34;menlo&amp;#34; , &amp;#34;monaco&amp;#34; , &amp;#34;courier new&amp;#34; , monospace ; font-size: 12px ; line-height: 21px&quot;&gt;&lt;span style=&quot;color: rgb(86 , 156 , 214)&quot;&gt;:drive&lt;/span&gt;&lt;br&gt;&lt;/div&gt;" style="html=1;fontSize=10;fillColor=#1E1E1E;fontStyle=1" parent="1" vertex="1">
                    <mxGeometry x="640" y="260" width="110" height="50" as="geometry"/>
                </mxCell>
                <mxCell id="57" value="self. 跟 class &amp;lt;&amp;lt; self 都是打開 singleton_class，將方法宣告在其中。" style="whiteSpace=wrap;html=1;fontSize=11;fillColor=#ffe6cc;strokeColor=#d79b00;" parent="1" vertex="1">
                    <mxGeometry x="770" y="210" width="160" height="80" as="geometry"/>
                </mxCell>
            </root>
        </mxGraphModel>
    </diagram>
</mxfile>